<svg width="52" height="47" viewBox="0 0 52 47" fill="none" xmlns="http://www.w3.org/2000/svg">
<path fill-rule="evenodd" clip-rule="evenodd" d="M39.8134 0H11.7496L11.2099 3.41107C9.6791 2.75494 7.70003 2.41878 5.40094 2.99998C2.26852 3.79184 0.177978 6.9197 1.19122 10.7191C2.16185 14.3587 5.86986 18.3101 13.3358 21.7416C14.4184 22.2392 14.6423 23.111 14.5818 23.4786C14.5679 23.5626 14.5443 23.6028 14.5362 23.6144C14.5313 23.6215 14.5307 23.6218 14.5234 23.6252C14.5159 23.6287 14.2685 23.7365 13.6259 23.4658L12.5015 26.1943C13.6129 26.6626 14.754 26.7704 15.7423 26.312C16.6343 25.8982 17.1698 25.1298 17.392 24.3037C20.2216 29.5312 22.8582 34.5705 22.8582 38.1321V42.5232C18.7956 43.2289 15.8423 45.2531 15.8423 46.5549V47H35.7207V46.5549C35.7207 45.2531 32.7674 43.2289 28.7048 42.5232V38.1321C28.7048 34.6445 31.233 30.2848 33.995 25.5221C34.2085 25.1539 34.4234 24.7833 34.6386 24.4105C34.8772 25.1956 35.4043 25.9161 36.2578 26.312C37.2461 26.7704 38.3872 26.6626 39.4985 26.1943L38.3742 23.4658C37.7315 23.7365 37.4841 23.6287 37.4766 23.6252C37.4693 23.6218 37.4688 23.6215 37.4638 23.6144C37.4557 23.6028 37.4321 23.5626 37.4183 23.4786C37.3577 23.111 37.5816 22.2392 38.6642 21.7416C46.1302 18.3101 49.8382 14.3587 50.8088 10.7191C51.8221 6.9197 49.7315 3.79184 46.5991 2.99998C44.0904 2.36579 41.9627 2.82387 40.3827 3.59808L39.8134 0ZM6.10995 5.8677C8.12226 5.359 9.73704 5.87005 10.7817 6.49342C10.664 7.80786 10.6763 9.12237 10.9955 10.4036C11.6514 13.0363 13.0163 16.0134 14.595 19.0736C14.5785 19.0659 14.5621 19.0582 14.5455 19.0506C7.36716 15.7512 4.64392 12.3127 4.0137 9.94947C3.42608 7.74605 4.56508 6.25823 6.10995 5.8677ZM40.8116 6.76077C40.9166 7.98709 40.9174 9.21527 40.6995 10.4271C40.186 13.2833 39.0228 16.1608 37.613 18.9774C44.673 15.7005 47.3608 12.2952 47.9863 9.94947C48.574 7.74605 47.435 6.25823 45.8901 5.8677C43.5946 5.2874 41.8163 6.0341 40.8116 6.76077ZM21.4215 21.8742H30.1664V18.7458H27.6858V4.72956H24.9295L21.3965 6.70021V8.42453H24.0776V18.7458H21.4215V21.8742Z" fill="#C5FF4A"/>
</svg>
