<svg width="186" height="109" viewBox="0 0 186 109" fill="none" xmlns="http://www.w3.org/2000/svg">
<path d="M78.9048 35.4368H95.8539L87.3793 74.0239H70.4265L76.0787 48.6113H69.4857L78.9048 35.4368Z" fill="white"/>
<path d="M80.8567 33.6527L105.817 0L101.462 25.7346H116.514L89.5757 73.2503L98.291 33.6527H80.8567Z" fill="#ACFE00"/>
<path fill-rule="evenodd" clip-rule="evenodd" d="M5.96598 85.519C5.90608 85.519 5.85593 85.5588 5.84325 85.6163L0.73111 108.831C0.71237 108.916 0.781609 109 0.870162 109H24.4262C24.4861 109 24.5362 108.96 24.5489 108.903L29.661 85.6885C29.6798 85.6034 29.6105 85.519 29.522 85.519H5.96598ZM9.96839 102.96C9.94965 103.045 10.0189 103.13 10.1074 103.13H17.7743C17.8342 103.13 17.8844 103.09 17.8971 103.032L20.4238 91.5587C20.4425 91.4736 20.3733 91.3892 20.2847 91.3892H12.6178C12.5579 91.3892 12.5078 91.429 12.4951 91.4866L9.96839 102.96Z" fill="white"/>
<path d="M31.7779 85.6163C31.7906 85.5588 31.8407 85.519 31.9006 85.519H39.6563C39.7095 85.519 39.7595 85.5505 39.7837 85.5992L45.0777 96.2554C45.1349 96.3705 45.3013 96.3591 45.3279 96.2383L47.667 85.6163C47.6797 85.5588 47.7298 85.519 47.7897 85.519H55.4566C55.5452 85.519 55.6144 85.6034 55.5957 85.6885L50.4835 108.903C50.4709 108.96 50.4207 109 50.3608 109H42.5777C42.5475 109 42.5239 108.971 42.5303 108.942C42.5325 108.932 42.5311 108.921 42.5263 108.912L37.1999 98.1902C37.1427 98.0751 36.9763 98.0865 36.9497 98.2074L34.5944 108.903C34.5817 108.96 34.5316 109 34.4717 109H26.8048C26.7163 109 26.647 108.916 26.6658 108.831L31.7779 85.6163Z" fill="white"/>
<path d="M57.7126 85.6163C57.7252 85.5588 57.7754 85.519 57.8353 85.519H81.3913C81.4798 85.519 81.5491 85.6034 81.5303 85.6885L80.2964 91.2919C80.2837 91.3495 80.2335 91.3892 80.1736 91.3892H64.4871C64.4272 91.3892 64.3771 91.429 64.3644 91.4866L63.7768 94.1549C63.758 94.24 63.8273 94.3244 63.9158 94.3244H79.4522C79.5407 94.3244 79.61 94.4088 79.5912 94.4939L78.3573 100.097C78.3446 100.155 78.2944 100.195 78.2346 100.195H62.548C62.4881 100.195 62.438 100.234 62.4253 100.292L61.8377 102.96C61.8189 103.045 61.8882 103.13 61.9767 103.13H77.5131C77.6017 103.13 77.6709 103.214 77.6522 103.299L76.4182 108.903C76.4055 108.96 76.3553 109 76.2954 109H52.7395C52.6509 109 52.5817 108.916 52.6004 108.831L57.7126 85.6163Z" fill="white"/>
<path d="M83.6472 85.6163C83.6599 85.5588 83.71 85.519 83.7699 85.519H107.326C107.414 85.519 107.484 85.6034 107.465 85.6885L106.231 91.2919C106.218 91.3495 106.168 91.3892 106.108 91.3892H90.4218C90.3619 91.3892 90.3117 91.429 90.299 91.4866L89.7114 94.1549C89.6927 94.24 89.7619 94.3244 89.8505 94.3244H105.387C105.475 94.3244 105.545 94.4088 105.526 94.4939L102.353 108.903C102.34 108.96 102.29 109 102.23 109H78.6741C78.5856 109 78.5163 108.916 78.5351 108.831L79.769 103.227C79.7817 103.17 79.8318 103.13 79.8918 103.13H95.5783C95.6382 103.13 95.6883 103.09 95.701 103.032L96.2886 100.364C96.3073 100.279 96.2381 100.195 96.1496 100.195H80.6132C80.5246 100.195 80.4554 100.11 80.4741 100.025L83.6472 85.6163Z" fill="#ACFE00"/>
<path d="M109.582 85.6163C109.595 85.5588 109.645 85.519 109.705 85.519H117.371C117.46 85.519 117.529 85.6034 117.511 85.6885L115.646 94.1549C115.627 94.24 115.697 94.3244 115.785 94.3244H123.452C123.512 94.3244 123.562 94.2846 123.575 94.227L125.471 85.6163C125.484 85.5588 125.534 85.519 125.594 85.519H133.261C133.349 85.519 133.418 85.6034 133.4 85.6885L128.287 108.903C128.275 108.96 128.225 109 128.165 109H120.498C120.409 109 120.34 108.916 120.359 108.831L122.223 100.364C122.242 100.279 122.173 100.195 122.084 100.195H114.417C114.357 100.195 114.307 100.234 114.295 100.292L112.398 108.903C112.386 108.96 112.336 109 112.276 109H104.609C104.52 109 104.451 108.916 104.47 108.831L109.582 85.6163Z" fill="#ACFE00"/>
<path fill-rule="evenodd" clip-rule="evenodd" d="M135.639 85.519C135.579 85.519 135.529 85.5588 135.516 85.6163L130.404 108.831C130.386 108.916 130.455 109 130.543 109H154.099C154.159 109 154.209 108.96 154.222 108.903L159.334 85.6885C159.353 85.6034 159.284 85.519 159.195 85.519H135.639ZM139.642 102.96C139.623 103.045 139.692 103.13 139.781 103.13H147.448C147.507 103.13 147.558 103.09 147.57 103.032L150.097 91.5587C150.116 91.4736 150.046 91.3892 149.958 91.3892H142.291C142.231 91.3892 142.181 91.429 142.168 91.4866L139.642 102.96Z" fill="#ACFE00"/>
<path d="M161.574 85.519C161.514 85.519 161.464 85.5588 161.451 85.6163L160.217 91.2198C160.198 91.3049 160.268 91.3892 160.356 91.3892H166.558C166.646 91.3892 166.716 91.4736 166.697 91.5587L162.893 108.831C162.875 108.916 162.944 109 163.032 109H173.48C173.54 109 173.59 108.96 173.603 108.903L177.438 91.4866C177.451 91.429 177.501 91.3892 177.561 91.3892H183.912C183.972 91.3892 184.022 91.3495 184.035 91.2919L185.269 85.6885C185.288 85.6034 185.218 85.519 185.13 85.519H161.574Z" fill="#ACFE00"/>
</svg>
