<svg width="24" height="16" viewBox="0 0 24 16" fill="none" xmlns="http://www.w3.org/2000/svg">
<path d="M0.0426897 1.40191L8.55887 7.6187L0.138114 14.8902C0.0493862 14.6826 0 14.4545 0 14.2143V1.7857C0 1.65386 0.0142299 1.52537 0.0426897 1.40191Z" fill="#ACFE00"/>
<path d="M1.22461 0.142142C1.37946 0.0961042 1.54436 0.0714111 1.71429 0.0714111H22.2857C22.4431 0.0714111 22.5963 0.092756 22.7411 0.132516L12.9124 7.89744C12.6102 8.136 12.1867 8.14437 11.8753 7.91753L1.22461 0.142142Z" fill="#ACFE00"/>
<path d="M23.9481 1.36382L15.9467 7.68483L23.9556 14.6018C23.9841 14.4775 24 14.3474 24 14.2143V1.7857C24 1.64005 23.9824 1.49859 23.9481 1.36382Z" fill="#ACFE00"/>
<path d="M22.7838 15.8549L14.5773 8.76714L13.9746 9.24259C13.0689 9.95827 11.7974 9.98254 10.865 9.30202L9.98019 8.65623L1.56696 15.9223C1.61551 15.9265 1.6649 15.9286 1.71429 15.9286H22.2857C22.459 15.9286 22.6264 15.9026 22.7838 15.8549Z" fill="#ACFE00"/>
</svg>
