<svg width="64" height="64" viewBox="0 0 64 64" fill="none" xmlns="http://www.w3.org/2000/svg">
<path d="M10.672 16V5.33333H58.6667V58.6667H10.6667V53.3333H5.33333V64H64V0H5.33865V10.6667H0.00531705L0 16H10.672Z" fill="#ACFE00"/>
<path fill-rule="evenodd" clip-rule="evenodd" d="M21.0148 53.3333L18.6875 31.5496L26.1057 28.1809L34.6875 34.6642L42.3966 28.1809L50.6875 31.5496L48.3602 53.3333H21.0148ZM25.8087 48L24.3998 34.813L25.4222 34.3488L34.8657 41.4831L43.3682 34.3324L44.9575 34.9782L43.5663 48H25.8087Z" fill="#ACFE00"/>
<path fill-rule="evenodd" clip-rule="evenodd" d="M44.6511 20.5643L34.6875 28.8515L23.8511 20.5643L26.1057 10.6667H42.3966L44.6511 20.5643ZM34.5479 22.0306L38.8467 18.455L37.9457 16H30.5566L29.682 18.3093L34.5479 22.0306Z" fill="#ACFE00"/>
<path d="M0 32V26.6667H5.33333V21.3333H10.6667V32H0Z" fill="#ACFE00"/>
<path d="M5.33333 42.6667V37.3333H10.6667V48H0V42.6667H5.33333Z" fill="#ACFE00"/>
</svg>
