<svg width="64" height="64" viewBox="0 0 64 64" fill="none" xmlns="http://www.w3.org/2000/svg">
<path d="M57.9657 12.3896L48.0021 20.6717L47.014 19.9165L45.5957 12.1225L47.8625 13.855L52.1613 10.2816L51.2603 5.33007H38.4561L39.4203 0H55.7112L57.9657 12.3896Z" fill="#ACFE00"/>
<path d="M47.7362 27.0494L53.0029 29.1881L56.6828 26.0952L58.2721 26.7406L56.881 39.7544H52.7519L52.1821 45.0845H61.6749L64.0021 23.3141L55.7112 19.9474L48.0021 26.4268L47.7362 27.0494Z" fill="#ACFE00"/>
<path d="M32.0021 29.9889L41.9657 21.7068L39.7112 9.31721H23.4203L22.4561 14.6473H35.2603L36.1613 19.5988L31.8625 23.1722L29.5957 21.4397L31.014 29.2337L32.0021 29.9889Z" fill="#ACFE00"/>
<path d="M37.0029 38.5053L31.7362 36.3666L32.0021 35.744L39.7112 29.2646L48.0021 32.6314L45.6749 54.4017H36.1821L36.7519 49.0716H40.881L42.2721 36.0578L40.6828 35.4124L37.0029 38.5053Z" fill="#ACFE00"/>
<path fill-rule="evenodd" clip-rule="evenodd" d="M15.9978 39.5872L25.9614 31.3051L23.7069 18.9155H7.41603L5.16143 31.3051L15.9978 39.5872ZM20.157 29.1971L15.8582 32.7705L10.9923 29.0515L11.8669 24.2456H19.256L20.157 29.1971Z" fill="#ACFE00"/>
<path fill-rule="evenodd" clip-rule="evenodd" d="M-0.00219727 42.2296L2.32507 64H29.6705L31.9978 42.2296L23.7069 38.8629L15.9978 45.3423L7.41597 38.8629L-0.00219727 42.2296ZM5.71013 45.491L7.11897 58.6699H24.8766L26.2678 45.6561L24.6785 45.0107L16.176 52.157L6.73251 45.027L5.71013 45.491Z" fill="#ACFE00"/>
</svg>
