<svg width="64" height="47" viewBox="0 0 64 47" fill="none" xmlns="http://www.w3.org/2000/svg">
<path d="M34.1792 2.98049L36.2437 1.60488L28.2151 0L24.3154 3.66829L23.6272 5.96098L25.233 7.33659L26.1505 7.10732L30.2796 2.52195L34.1792 2.98049Z" fill="#C5FF4A"/>
<path d="M14.9104 46.5415L29.362 33.7024L35.7849 31.639L44.043 26.5951L46.3369 14.2146L42.6667 9.62927L41.5197 2.75122L39.914 1.37561H37.8495L35.0968 3.43902L36.7025 4.12683V6.64878L35.5556 8.7122H33.2617L31.1971 10.3171L33.2617 12.1512L33.491 14.4439L32.5735 15.361L33.7204 16.7366L34.1792 19.0293L32.5735 20.1756L33.491 21.7805L33.7204 24.0732L31.8853 25.2195L25.4624 24.0732L25.9211 25.2195L25.233 27.0537H22.7097L14.2222 25.4488L0 33.7024C7.43358 37.1291 10.4949 40.1061 14.9104 46.5415Z" fill="#C5FF4A"/>
<path fill-rule="evenodd" clip-rule="evenodd" d="M12.8459 19.2585L11.6989 20.4049L11.4695 22.4683L13.0753 24.3024L22.7097 26.1366H24.086L24.5448 25.2195L23.8566 22.6976L30.7384 24.0732L32.3441 23.3854L32.1147 21.7805L31.4265 19.7171L32.8029 18.5707L32.1147 16.7366L30.9677 15.1317L32.1147 14.2146V12.6098L30.9677 11.4634L28.6738 12.1512L26.5334 11.7622L26.1445 11.6992L16 9L21.5 9.5L25.4934 11.0359L24.7742 10.3171V8.25366L22.2509 6.19024L23.1685 3.89756H16.5161L14.9104 5.27317L14.4516 7.79512L15.828 8.94146L13.7634 9.17073L12.6165 10.5463L12.5 13L13.7634 14.0747L12 14.5L11.5 16L11.9283 18.1122L12.8459 19.2585ZM23.6471 22.5879L13.5 19.5L19 20L23.6471 22.5879ZM31.17 19.6843L15 14L22.5 15.5L31.17 19.6843Z" fill="#C5FF4A"/>
<path d="M29.5914 35.078L50.0072 47C53.8619 39.2406 57.0711 35.9595 64 31.4098L45.6487 24.761L45.19 27.2829L36.0143 32.7854L29.5914 35.078Z" fill="#C5FF4A"/>
<path d="M27.5269 11.0049L25.9211 9.62927L26.1505 8.02439L30.7384 3.66829L33.7204 3.89756L35.5556 4.58537V6.41951L34.8674 7.56585L32.3441 7.79512L29.8208 10.3171L27.5269 11.0049Z" fill="#C5FF4A"/>
</svg>
